<?xml version="1.0" standalone="no"?>
<!DOCTYPE svg PUBLIC "-//W3C//DTD SVG 20010904//EN"
 "http://www.w3.org/TR/2001/REC-SVG-20010904/DTD/svg10.dtd">
<svg version="1.0" xmlns="http://www.w3.org/2000/svg"
 width="1424.000000pt" height="1424.000000pt" viewBox="0 0 1424.000000 1424.000000"
 preserveAspectRatio="xMidYMid meet">
<metadata>
Created by potrace 1.14, written by Peter Selinger 2001-2017
</metadata>
<g transform="translate(0.000000,1424.000000) scale(0.100000,-0.100000)"
fill="#000000" stroke="none">
<path d="M4792 11184 c-6 -7 -12 -18 -12 -24 0 -5 -3 -10 -8 -10 -4 0 -13 -15
-21 -32 -8 -18 -31 -60 -51 -93 -20 -33 -83 -141 -140 -240 -56 -99 -111 -192
-121 -207 -11 -15 -19 -34 -19 -43 0 -8 -4 -15 -10 -15 -5 0 -12 -11 -16 -25
-3 -14 -9 -25 -13 -25 -4 0 -20 -26 -36 -57 -16 -32 -32 -60 -35 -63 -4 -3
-18 -25 -30 -50 -12 -25 -25 -47 -29 -50 -3 -3 -19 -31 -36 -62 -16 -32 -33
-58 -37 -58 -4 0 -8 -6 -8 -13 0 -7 -13 -33 -28 -58 -16 -24 -42 -69 -59 -99
-17 -30 -63 -111 -103 -180 -88 -150 -112 -193 -141 -245 -12 -22 -27 -43 -33
-47 -6 -4 -8 -8 -4 -8 4 0 -6 -21 -22 -47 -17 -26 -30 -52 -30 -59 0 -7 -4
-14 -8 -16 -5 -1 -20 -23 -34 -48 -14 -25 -51 -90 -83 -145 -32 -55 -79 -136
-103 -180 -25 -44 -49 -81 -54 -83 -4 -2 -8 -8 -8 -14 0 -10 -40 -81 -170
-303 -29 -49 -64 -110 -78 -135 -14 -25 -71 -124 -127 -220 -56 -96 -117 -202
-136 -235 -19 -33 -38 -67 -44 -76 -5 -9 -25 -43 -43 -75 -18 -32 -42 -75 -53
-94 -12 -19 -31 -53 -42 -75 -12 -22 -24 -42 -27 -45 -5 -4 -66 -111 -128
-220 -28 -50 -81 -142 -92 -160 -5 -8 -35 -60 -66 -115 -31 -55 -65 -112 -75
-126 -10 -14 -16 -29 -12 -33 3 -3 2 -6 -4 -6 -6 0 -16 -13 -23 -30 -7 -16
-16 -30 -20 -30 -3 0 -7 -6 -7 -13 0 -7 -9 -27 -20 -43 -16 -23 -156 -263
-273 -469 -9 -16 -37 -64 -61 -105 -24 -41 -55 -96 -69 -122 -14 -27 -28 -48
-32 -48 -5 0 -8 -4 -8 -9 0 -5 -49 -94 -108 -197 -60 -104 -118 -205 -128
-224 -10 -19 -22 -36 -26 -38 -5 -2 -8 -8 -8 -13 0 -7 -73 -139 -100 -179 -6
-8 -13 -22 -17 -30 -3 -8 -20 -37 -37 -65 -17 -27 -37 -61 -44 -75 -7 -14 -23
-43 -37 -65 -14 -22 -40 -66 -58 -98 -50 -92 -60 -109 -94 -164 -18 -29 -29
-53 -25 -53 4 0 2 -4 -3 -8 -12 -8 -41 -52 -45 -67 -1 -5 -11 -22 -21 -37 -10
-14 -19 -31 -19 -36 0 -6 -3 -12 -7 -14 -8 -3 -31 -42 -75 -125 -12 -24 -26
-43 -30 -43 -4 0 -8 -9 -8 -20 0 -11 -4 -20 -8 -20 -5 0 -17 -19 -28 -41 -10
-23 -23 -47 -29 -53 -5 -6 -26 -41 -45 -78 -19 -37 -38 -68 -41 -68 -3 0 -11
-16 -19 -35 -8 -19 -17 -35 -22 -35 -4 0 -8 -4 -8 -10 0 -5 -18 -39 -40 -75
-22 -36 -40 -67 -40 -70 0 -2 -14 -28 -32 -57 -67 -114 -138 -241 -138 -249 0
-5 -4 -9 -8 -9 -5 0 -17 -18 -27 -40 -10 -22 -22 -40 -27 -40 -4 0 -8 -8 -8
-17 0 -9 -6 -24 -14 -32 -7 -9 -25 -36 -38 -61 -44 -79 -69 -122 -143 -250
-40 -69 -82 -141 -93 -160 -10 -19 -29 -52 -42 -72 l-22 -38 4710 0 4710 0
-15 33 c-9 17 -19 34 -22 37 -3 3 -19 30 -35 60 -16 30 -35 62 -42 70 -7 8
-14 20 -15 25 -1 6 -12 26 -24 45 -13 20 -35 58 -50 85 -50 92 -72 130 -168
293 -52 89 -92 162 -89 162 4 0 2 4 -3 8 -9 6 -85 133 -163 272 -26 46 -114
198 -151 260 -11 19 -25 44 -31 55 -5 11 -23 43 -40 70 -17 28 -36 61 -43 75
-6 14 -14 27 -18 30 -3 3 -8 12 -12 20 -4 8 -20 38 -37 65 -17 28 -33 58 -37
68 -3 9 -9 17 -14 17 -5 0 -8 3 -7 8 1 4 -5 18 -13 32 -36 56 -79 131 -79 135
0 3 -12 24 -27 48 -14 23 -40 67 -56 97 -16 30 -36 62 -43 71 -8 8 -14 18 -14
22 0 3 -29 56 -65 117 -36 61 -65 114 -65 117 0 4 -6 14 -14 22 -7 9 -31 48
-51 86 -21 39 -41 72 -44 75 -3 3 -15 23 -27 45 -24 45 -33 62 -133 232 -39
68 -71 125 -71 127 0 3 -13 25 -30 49 -16 25 -30 47 -30 50 0 5 -109 196 -130
227 -6 8 -16 26 -22 40 -7 14 -18 31 -25 38 -7 7 -13 18 -13 23 0 5 -16 33
-35 63 -19 30 -35 59 -35 64 0 5 -8 20 -18 33 -18 23 -72 117 -96 166 -6 13
-14 23 -18 23 -5 0 -8 5 -8 10 0 9 -83 156 -169 300 -23 39 -58 101 -100 175
-15 28 -38 66 -49 85 -12 19 -28 49 -36 65 -8 17 -23 41 -33 55 -10 14 -28 43
-38 65 -11 22 -23 42 -26 45 -6 6 -89 150 -89 155 0 2 -22 40 -50 84 -27 45
-46 81 -42 81 4 0 2 4 -3 8 -9 6 -113 182 -202 342 -8 14 -23 39 -33 55 -11
17 -30 50 -43 75 -35 66 -51 94 -58 100 -3 3 -20 31 -38 64 -17 32 -62 111
-99 175 -38 64 -124 213 -192 331 -67 118 -130 226 -139 240 -9 14 -22 36 -28
50 -7 14 -24 43 -38 65 -14 22 -30 49 -35 60 -5 11 -21 38 -35 60 -14 22 -28
46 -31 53 -4 8 -45 80 -92 160 -47 81 -98 172 -115 202 -17 30 -34 57 -39 58
-4 2 -8 10 -8 18 0 8 -9 24 -20 36 -10 12 -17 25 -14 30 3 4 0 8 -5 8 -6 0
-11 4 -11 9 0 5 -20 44 -45 85 -25 42 -45 81 -45 86 0 6 -4 10 -9 10 -5 0 -13
10 -17 23 -3 12 -14 33 -24 47 -9 14 -28 45 -42 70 -35 63 -60 106 -97 168
-17 29 -31 57 -31 62 0 6 -4 10 -10 10 -5 0 -10 6 -10 13 -1 6 -23 48 -50 92
-28 44 -55 91 -61 105 -5 13 -13 27 -17 30 -4 3 -16 23 -27 45 -11 22 -34 63
-52 92 -18 29 -33 56 -33 62 0 5 -4 11 -8 13 -4 2 -14 17 -22 34 -13 26 -18
29 -28 18z m46 -1650 c18 -31 32 -60 32 -65 0 -5 4 -9 9 -9 5 0 14 -12 20 -27
6 -16 27 -55 47 -88 20 -33 46 -78 59 -100 12 -22 55 -96 95 -165 40 -69 81
-141 92 -160 11 -19 69 -119 129 -222 60 -103 109 -191 109 -195 0 -3 6 -14
14 -22 7 -9 25 -36 38 -61 25 -46 158 -276 197 -340 11 -19 25 -45 30 -57 5
-11 15 -24 21 -28 5 -3 8 -10 5 -15 -3 -5 1 -14 8 -22 13 -13 87 -135 87 -144
0 -2 11 -21 23 -42 13 -20 35 -57 49 -82 14 -25 61 -106 105 -181 44 -74 82
-142 86 -150 4 -8 17 -30 28 -49 21 -35 197 -339 229 -395 9 -16 59 -102 110
-190 113 -195 118 -205 161 -280 18 -33 37 -61 41 -63 4 -2 8 -8 8 -12 0 -9
55 -107 88 -160 9 -14 17 -27 17 -30 0 -3 17 -33 38 -66 20 -34 37 -67 37 -73
0 -6 4 -11 9 -11 5 0 11 -8 14 -17 7 -20 49 -96 64 -115 6 -7 21 -33 34 -58
13 -25 29 -52 35 -60 7 -8 24 -37 39 -65 14 -27 39 -72 56 -100 16 -27 34 -59
39 -70 6 -11 20 -36 32 -55 12 -19 31 -51 42 -72 12 -20 59 -102 106 -184 47
-81 96 -165 109 -188 13 -23 65 -113 116 -201 216 -372 384 -664 415 -720 18
-33 37 -65 42 -72 5 -7 17 -27 27 -45 22 -43 45 -82 51 -88 3 -3 13 -20 23
-39 12 -24 15 -37 7 -45 -7 -7 -10 -7 -10 1 0 7 -10 9 -27 4 -16 -4 -45 -4
-66 -1 -20 4 -40 3 -43 -1 -3 -5 -14 -5 -24 1 -13 7 -21 7 -25 0 -4 -6 -11 -8
-16 -5 -13 9 -99 11 -99 3 0 -4 -13 -3 -30 2 -17 5 -30 5 -30 0 0 -5 -10 -6
-22 -1 -12 4 -37 5 -55 1 -18 -5 -33 -5 -33 -1 0 7 -68 6 -76 -2 -3 -3 -19 -1
-35 3 -17 5 -29 5 -29 0 0 -6 -10 -6 -25 0 -15 6 -26 6 -30 -1 -4 -5 -11 -7
-16 -4 -13 9 -99 11 -99 3 0 -4 -13 -3 -30 2 -17 5 -30 5 -30 0 0 -5 -7 -7
-15 -4 -19 8 -105 11 -105 4 0 -6 -99 -2 -117 5 -7 2 -15 0 -18 -5 -4 -7 -13
-6 -25 0 -13 7 -21 7 -25 0 -4 -6 -11 -8 -16 -5 -13 9 -99 11 -99 3 0 -4 -13
-3 -30 2 -17 5 -30 5 -30 0 0 -5 -10 -6 -22 -1 -12 4 -37 5 -55 1 -18 -5 -33
-5 -33 -1 0 7 -68 6 -76 -2 -3 -3 -19 -1 -35 3 -17 5 -29 5 -29 0 0 -6 -10 -6
-25 0 -15 6 -26 6 -30 -1 -4 -5 -11 -7 -16 -4 -13 9 -99 11 -99 3 0 -4 -13 -3
-30 2 -17 5 -30 5 -30 0 0 -5 -7 -7 -15 -4 -19 8 -105 11 -105 4 0 -6 -99 -2
-117 5 -7 2 -15 0 -18 -5 -4 -7 -13 -6 -25 0 -13 7 -21 7 -25 0 -4 -6 -11 -8
-16 -5 -13 9 -99 11 -99 3 0 -4 -13 -3 -30 2 -17 5 -30 5 -30 0 0 -5 -10 -6
-22 -1 -12 4 -37 5 -55 1 -18 -5 -33 -5 -33 -1 0 7 -68 6 -76 -2 -3 -3 -19 -1
-35 3 -17 5 -29 5 -29 0 0 -6 -10 -6 -25 0 -15 6 -26 6 -30 -1 -4 -5 -11 -7
-16 -4 -13 9 -99 11 -99 3 0 -4 -13 -3 -30 2 -17 5 -30 5 -30 0 0 -5 -7 -7
-15 -4 -19 8 -105 11 -105 4 0 -6 -99 -2 -117 5 -7 2 -15 0 -18 -5 -4 -7 -13
-6 -25 0 -13 7 -21 7 -25 0 -4 -6 -11 -8 -16 -5 -13 9 -99 11 -99 3 0 -4 -14
-3 -30 2 -17 5 -30 5 -30 0 0 -5 -10 -6 -22 -1 -12 4 -37 5 -55 1 -18 -5 -33
-5 -33 -1 0 7 -68 6 -76 -2 -3 -3 -19 -1 -35 3 -17 5 -29 5 -29 0 0 -6 -10 -6
-25 0 -15 6 -26 6 -30 -1 -4 -5 -11 -7 -16 -4 -13 9 -99 11 -99 3 0 -4 -13 -3
-30 2 -17 5 -30 5 -30 0 0 -5 -7 -7 -15 -4 -19 8 -105 11 -105 4 0 -6 -99 -2
-117 5 -7 2 -15 0 -18 -5 -4 -7 -13 -6 -25 0 -13 7 -21 7 -25 0 -4 -6 -11 -8
-16 -5 -13 9 -99 11 -99 3 0 -4 -13 -3 -30 2 -17 5 -30 5 -30 0 0 -5 -10 -6
-22 -1 -12 4 -37 5 -55 1 -18 -5 -33 -5 -33 -1 0 7 -68 6 -76 -2 -3 -3 -19 -1
-35 3 -17 5 -29 5 -29 0 0 -6 -10 -6 -25 0 -15 6 -26 6 -30 -1 -4 -5 -11 -7
-16 -4 -13 9 -99 11 -99 3 0 -4 -13 -3 -30 2 -17 5 -30 5 -30 0 0 -5 -7 -7
-15 -4 -19 8 -105 11 -105 4 0 -6 -99 -2 -117 5 -7 2 -15 0 -18 -5 -4 -7 -13
-6 -25 0 -13 7 -21 7 -25 0 -4 -6 -11 -8 -16 -5 -13 9 -99 11 -99 3 0 -4 -13
-3 -30 2 -17 5 -30 5 -30 0 0 -5 -10 -6 -22 -1 -12 4 -37 5 -55 1 -18 -5 -33
-5 -33 -1 0 7 -68 6 -76 -2 -3 -3 -19 -1 -35 3 -17 5 -29 5 -29 0 0 -6 -10 -6
-25 0 -15 6 -26 6 -30 -1 -4 -5 -11 -7 -16 -4 -13 9 -99 11 -99 3 0 -4 -13 -3
-30 2 -17 5 -30 5 -30 0 0 -5 -7 -7 -15 -4 -19 8 -105 11 -105 4 0 -6 -99 -2
-117 5 -7 2 -15 0 -18 -5 -4 -7 -13 -6 -25 0 -13 7 -21 7 -25 0 -4 -6 -11 -8
-16 -5 -13 9 -99 11 -99 3 0 -4 -13 -3 -30 2 -17 5 -30 5 -30 0 0 -5 -10 -6
-22 -1 -12 4 -37 5 -55 1 -18 -5 -33 -5 -33 -1 0 3 -17 5 -37 4 -21 -1 -38 -2
-38 -3 0 -1 -17 -2 -38 -3 -20 -1 -37 0 -37 3 0 5 -58 4 -70 0 -3 -1 -9 -2
-14 -1 -28 6 -76 7 -76 2 0 -8 -69 -6 -76 2 -4 3 4 23 17 44 13 21 33 54 44
74 96 172 261 455 267 457 5 2 8 8 8 13 0 5 18 40 41 76 22 37 41 72 42 78 1
5 4 12 7 15 7 7 70 110 70 115 0 2 21 39 47 82 25 43 60 103 76 133 17 30 33
57 36 60 4 3 15 24 26 47 11 24 23 43 28 43 4 0 7 6 7 14 0 7 7 19 15 26 9 7
13 15 10 18 -3 3 1 12 7 20 7 8 17 22 23 33 5 10 34 60 63 110 28 51 52 96 52
101 0 4 3 8 8 8 4 0 21 26 37 58 17 31 33 59 36 62 6 4 16 23 61 110 7 14 15
27 18 30 10 9 41 65 47 83 3 9 9 17 14 17 5 0 9 9 9 20 0 11 4 20 8 20 8 0 36
51 32 59 -1 2 2 7 7 10 5 3 25 33 44 66 18 33 42 74 51 90 10 17 29 50 43 75
14 25 37 63 50 85 13 22 27 47 31 55 11 21 209 364 245 423 16 27 29 53 29 58
0 5 4 9 9 9 5 0 11 8 14 18 3 9 19 40 35 67 16 28 79 138 141 245 62 107 128
221 147 253 19 32 34 63 34 68 0 5 5 9 10 9 6 0 10 5 10 10 0 6 20 43 43 83
24 39 47 79 50 87 4 8 15 29 26 45 19 32 121 208 154 265 10 19 52 91 92 160
40 69 82 141 92 160 11 19 43 74 72 122 28 48 51 91 51 97 0 6 3 11 8 11 4 0
12 10 18 23 17 37 59 112 65 117 3 3 8 12 12 20 4 8 18 33 32 55 14 22 28 47
32 55 28 54 88 156 95 158 4 2 8 8 8 13 0 6 22 47 48 92 27 45 51 89 55 97 4
8 16 29 27 45 11 17 23 37 27 45 3 8 16 31 28 50 12 19 33 55 47 80 14 25 37
65 52 90 14 25 47 82 72 128 25 45 49 82 53 82 4 0 21 -25 39 -56z"/>
<path d="M8998 8645 c-2 -2 -40 -7 -83 -10 -44 -3 -98 -10 -120 -16 -48 -12
-178 -61 -185 -70 -3 -3 -21 -14 -40 -24 -19 -10 -37 -21 -40 -24 -3 -3 -22
-19 -43 -34 -145 -108 -266 -312 -294 -495 -9 -61 -9 -216 1 -267 10 -51 14
-70 16 -70 1 0 4 -11 6 -24 2 -14 11 -38 19 -54 8 -17 15 -34 15 -38 0 -5 50
-94 110 -200 61 -105 110 -196 110 -200 0 -5 4 -9 9 -9 5 0 15 -16 22 -35 7
-19 16 -35 20 -35 4 0 11 -10 15 -22 3 -13 12 -30 19 -38 7 -8 26 -40 42 -70
35 -64 139 -245 159 -277 8 -13 14 -26 13 -29 0 -4 3 -10 8 -13 7 -5 22 -30
57 -96 6 -11 13 -22 16 -25 3 -3 16 -25 29 -50 13 -25 29 -52 36 -60 6 -8 17
-26 23 -40 7 -14 23 -43 35 -65 13 -22 32 -56 42 -75 11 -19 22 -37 25 -40 11
-10 290 -502 290 -511 0 -5 4 -9 9 -9 5 0 11 -8 14 -17 6 -18 37 -73 47 -83 3
-3 15 -23 26 -45 12 -22 46 -82 75 -133 30 -52 63 -110 75 -130 19 -33 95
-165 208 -357 22 -38 41 -72 41 -75 0 -3 10 -19 23 -37 12 -17 22 -34 22 -37
0 -4 24 -47 54 -95 30 -49 52 -91 50 -94 -2 -2 5 -12 16 -22 11 -10 20 -22 20
-27 0 -5 32 -64 72 -131 40 -67 80 -138 91 -157 10 -19 24 -44 30 -55 48 -80
249 -427 280 -485 17 -30 33 -57 37 -60 4 -3 9 -10 11 -16 14 -38 127 -159
199 -211 87 -63 267 -142 291 -128 5 4 9 2 9 -3 0 -20 323 -22 348 -2 1 2 10
3 20 5 9 1 24 5 32 8 8 3 39 15 68 26 112 41 246 138 307 220 14 19 25 31 25
25 0 -5 6 1 13 13 6 12 33 57 58 100 26 43 56 94 66 113 11 19 71 123 133 230
62 107 120 208 129 225 9 16 18 32 21 35 3 3 10 14 16 25 6 11 46 81 89 155
43 74 100 173 127 220 27 47 53 92 58 100 34 54 140 244 140 251 0 5 3 9 8 9
4 0 15 17 25 38 10 20 33 62 52 92 19 30 34 61 35 68 0 6 4 12 8 12 5 0 14 12
21 27 7 14 31 58 53 97 23 39 41 73 39 75 -1 2 1 7 6 10 6 3 43 64 84 136 41
71 79 137 84 147 6 9 17 29 26 45 9 15 41 72 73 127 31 54 56 102 56 106 0 5
4 10 8 12 8 3 31 42 88 148 11 19 22 37 27 38 4 2 7 7 7 12 0 7 104 190 131
230 5 8 15 27 22 43 6 15 15 27 19 27 4 0 8 4 8 9 0 5 73 134 161 287 89 154
173 299 187 324 14 25 45 78 69 118 24 41 43 78 43 83 0 5 3 9 8 9 4 0 12 10
18 23 6 12 32 61 58 109 45 83 88 191 101 254 11 52 13 208 4 264 -5 30 -11
66 -14 80 -2 14 -13 50 -25 80 -12 30 -26 67 -32 83 -5 15 -14 27 -19 27 -5 0
-9 5 -9 10 0 13 -48 89 -71 111 -9 9 -24 27 -35 40 -26 33 -135 125 -156 132
-10 4 -18 11 -18 17 0 5 -6 10 -13 10 -7 0 -39 13 -72 29 -75 37 -176 61 -280
67 -107 7 -193 6 -205 -1 -6 -3 -10 -2 -10 4 0 6 -11 6 -30 1 -18 -5 -32 -5
-36 1 -3 5 -9 7 -13 5 -7 -5 -48 -6 -159 -5 -34 0 -66 -2 -70 -5 -4 -2 -14 -1
-22 4 -8 5 -21 5 -30 0 -9 -5 -22 -5 -28 -1 -7 4 -35 5 -62 1 -27 -4 -55 -3
-62 1 -6 4 -19 4 -28 -1 -9 -5 -22 -5 -29 0 -8 4 -27 4 -42 0 -16 -5 -29 -5
-29 0 0 5 -13 5 -29 0 -16 -4 -32 -5 -36 -2 -7 8 -102 5 -115 -3 -6 -3 -10 -2
-10 4 0 6 -11 6 -30 1 -16 -5 -30 -5 -30 -1 0 4 -20 5 -45 1 -25 -4 -48 -3
-50 1 -3 4 -19 4 -35 -1 -17 -5 -30 -6 -30 -2 0 4 -16 7 -35 7 -19 0 -35 -3
-35 -7 0 -4 -13 -3 -30 2 -17 5 -30 5 -30 0 0 -5 -6 -7 -14 -4 -21 8 -106 10
-106 2 0 -4 -13 -3 -30 2 -16 5 -30 6 -30 2 0 -8 -109 -7 -117 1 -3 3 -16 2
-29 -3 -13 -5 -26 -6 -29 0 -3 5 -18 5 -35 0 -17 -5 -30 -5 -30 0 0 5 -13 5
-30 0 -18 -5 -32 -5 -36 1 -3 5 -9 7 -13 5 -7 -5 -48 -6 -159 -5 -34 0 -67 -3
-72 -6 -6 -3 -10 -2 -10 4 0 6 -11 6 -30 1 -18 -5 -32 -5 -36 1 -3 5 -9 7 -13
5 -7 -5 -48 -6 -159 -5 -34 0 -66 -2 -70 -5 -4 -2 -14 -1 -22 4 -8 5 -21 5
-30 0 -9 -5 -22 -5 -28 -1 -7 4 -35 5 -62 1 -27 -4 -55 -3 -62 1 -6 4 -19 4
-28 -1 -9 -5 -22 -5 -29 0 -8 4 -27 4 -42 0 -16 -5 -29 -5 -29 0 0 5 -13 5
-29 0 -16 -4 -32 -5 -36 -2 -7 8 -102 5 -115 -3 -6 -3 -10 -2 -10 4 0 6 -11 6
-30 1 -16 -5 -30 -5 -30 -1 0 4 -20 5 -45 1 -25 -4 -48 -3 -50 1 -3 4 -19 4
-35 -1 -17 -5 -30 -6 -30 -2 0 4 -16 7 -35 7 -19 0 -35 -3 -35 -7 0 -4 -13 -3
-30 2 -17 5 -30 5 -30 0 0 -5 -6 -7 -14 -4 -21 8 -106 10 -106 2 0 -4 -13 -3
-30 2 -16 5 -30 6 -30 2 0 -8 -109 -7 -117 1 -3 3 -16 2 -29 -3 -13 -5 -26 -6
-29 0 -3 5 -18 5 -35 0 -17 -5 -30 -5 -30 0 0 5 -13 5 -30 0 -18 -5 -32 -5
-36 1 -3 5 -9 7 -13 5 -7 -5 -48 -6 -159 -5 -34 0 -67 -3 -72 -6 -6 -3 -10 -2
-10 4 0 6 -11 6 -30 1 -18 -5 -32 -5 -36 1 -3 5 -9 7 -13 5 -7 -5 -47 -6 -160
-5 -35 0 -66 -2 -68 -5 -3 -3 -13 -1 -22 4 -10 5 -23 5 -31 0 -8 -5 -21 -5
-31 0 -9 5 -18 7 -21 5z"/>
</g>
</svg>
